HIERARCHY
ROOT ui
{
	 OFFSET 0 0 0
	 CHANNELS 3 XPosition YPosition Z Position
	 EndSite
	 {
	 OFFSET 0 -1 0
	 }
}
ROOT li
{
	 OFFSET 0 0 0
	 CHANNELS 3 XPosition YPosition Z Position
	 EndSite
	 {
	 OFFSET 0 -1 0
	 }
}
ROOT ul
{
	 OFFSET 0 0 0
	 CHANNELS 3 XPosition YPosition Z Position
	 EndSite
	 {
	 OFFSET 0 -1 0
	 }
}
ROOT ll
{
	 OFFSET 0 0 0
	 CHANNELS 3 XPosition YPosition Z Position
	 EndSite
	 {
	 OFFSET 0 -1 0
	 }
}
ROOT tt
{
	 OFFSET 0 0 0
	 CHANNELS 3 XPosition YPosition Z Position
	 EndSite
	 {
	 OFFSET 0 -1 0
	 }
}
ROOT tb
{
	 OFFSET 0 0 0
	 CHANNELS 3 XPosition YPosition Z Position
	 EndSite
	 {
	 OFFSET 0 -1 0
	 }
}
ROOT td
{
	 OFFSET 0 0 0
	 CHANNELS 3 XPosition YPosition Z Position
	 EndSite
	 {
	 OFFSET 0 -1 0
	 }
}
ROOT v
{
	 OFFSET 0 0 0
	 CHANNELS 3 XPosition YPosition Z Position
	 EndSite
	 {
	 OFFSET 0 -1 0
	 }
}
ROOT bn
{
	 OFFSET 0 0 0
	 CHANNELS 3 XPosition YPosition Z Position
	 EndSite
	 {
	 OFFSET 0 -1 0
	 }
}
MOTION
Frames: 24
Frame Time: 0.002
-0.0032958240509033203	-0.0059294490814208985	0		0.58303369140625	-2.68291064453125	0		-0.9557523193359375	0.1535780792236328	0		-0.4338256530761719	-3.06478759765625	0		1.787017578125	-1.286849365234375	0		3.317402587890625	-0.9550966186523437	0		4.54963232421875	-0.48486492919921875	0		5.88458056640625	0.3533639831542969	0		-0.27234439086914064	5.9060478515625	0		
0.0035180280208587647	8.42935025691986E-4	0		0.5447315673828125	-2.67870703125	0		-0.9830015258789062	0.15372242736816405	0		-0.42406268310546874	-3.05303125	0		1.787039794921875	-1.255067138671875	0		3.319345458984375	-0.9323843994140625	0		4.552265625	-0.49519012451171873	0		5.87634716796875	0.35409280395507814	0		-0.2913544921875	5.91108935546875	0		
0.003293376922607422	0.0016657040119171143	0		0.577484130859375	-2.672232177734375	0		-0.9832215576171875	0.1545751495361328	0		-0.478146484375	-3.02865478515625	0		1.754210205078125	-1.210969482421875	0		3.321042236328125	-0.93668212890625	0		4.54313134765625	-0.484405029296875	0		5.8891923828125	0.3606064453125	0		-0.273330322265625	5.918740234375	0		
0.003088365077972412	0.002466917037963867	0		0.5614281616210938	-2.649286865234375	0		-0.9464242553710938	0.15503097534179688	0		-0.424225830078125	-3.007384765625	0		1.7843026123046875	-1.177519775390625	0		3.30716455078125	-0.9008325805664062	0		4.52806884765625	-0.46856829833984376	0		5.88408837890625	0.3702964172363281	0		-0.27436325073242185	5.92055908203125	0		
-1.2914599478244782E-4	2.748929858207703E-4	0		0.5611774291992188	-2.6485224609375	0		-0.9876361694335938	0.1532449951171875	0		-0.46329144287109375	-2.98720458984375	0		1.7354627685546875	-1.1392923583984376	0		3.275856201171875	-0.9098206787109375	0		4.52790380859375	-0.46489059448242187	0		5.88375830078125	0.35593429565429685	0		-0.2564505920410156	5.91716162109375	0		
-0.004331614017486572	-0.0019329910278320312	0		0.5609523315429688	-2.6477822265625	0		-0.9558475341796875	0.14969293212890625	0		-0.43135311889648437	-2.96976806640625	0		1.7146226806640625	-1.1033648681640624	0		3.268827880859375	-0.8930645141601562	0		4.5157666015625	-0.4601012268066406	0		5.88359326171875	0.3565685729980469	0		-0.2555151824951172	5.916908203125	0		
-0.007531575202941895	-0.005179366111755371	0		0.54186376953125	-2.635876220703125	0		-0.9830135498046875	0.14970420837402343	0		-0.48836370849609373	-2.94946240234375	0		1.711861083984375	-1.061640380859375	0		3.27879541015625	-0.878494384765625	0		4.52155126953125	-0.46450363159179686	0		5.88851953125	0.36514886474609376	0		-0.2886517639160156	5.9109697265625	0		
-6.093609929084777E-4	0.0024418230056762694	0		0.5638173217773438	-2.622413330078125	0		-0.951121337890625	0.15408282470703125	0		-0.43840487670898437	-2.935272216796875	0		1.6942291259765625	-1.008786865234375	0		3.237055419921875	-0.8364142456054687	0		4.5035625	-0.44767514038085937	0		5.89652685546875	0.3806951904296875	0		-0.25368672180175783	5.916310546875	0		
0.002283375978469849	0.006071417808532715	0		0.55779638671875	-2.6086962890625	0		-0.9882459106445313	0.156123779296875	0		-0.47432473754882815	-2.911245361328125	0		1.6774718017578125	-0.9699663696289063	0		3.24676025390625	-0.8508739013671875	0		4.516462890625	-0.443171630859375	0		5.913390625	0.38114797973632814	0		-0.2878482666015625	5.9113173828125	0		
-0.007944222927093505	-0.003200608015060425	0		0.5668399047851562	-2.591162841796875	0		-0.9234569702148437	0.14809170532226562	0		-0.44128262329101564	-2.89395458984375	0		1.7006982421875	-0.934576416015625	0		3.230009033203125	-0.8130794677734375	0		4.49749951171875	-0.4263564453125	0		5.91326416015625	0.3817701721191406	0		-0.25292221069335935	5.91658837890625	0		
-0.0050190892219543455	0.0013583290576934814	0		0.5148109741210938	-2.583043701171875	0		-0.9646114501953125	0.14509255981445313	0		-0.47614877319335935	-2.870013671875	0		1.6700655517578125	-0.8866666870117188	0		3.20097021484375	-0.805180419921875	0		4.49034521484375	-0.42967532348632814	0		5.9131474609375	0.38238882446289063	0		-0.2540563507080078	5.9181865234375	0		
0.0017465529441833495	-0.011161172866821289	0		0.548795166015625	-2.57683203125	0		-0.9957542724609375	0.14194715881347655	0		-0.4990472412109375	-2.85223583984375	0		1.625369873046875	-0.8466444702148438	0		3.181090087890625	-0.7833941040039063	0		4.47140869140625	-0.412888916015625	0		5.913041015625	0.3830025329589844	0		-0.2532318878173828	5.917724609375	0		
0.0018516780138015747	0.008348004341125488	0		0.5298724975585938	-2.564121337890625	0		-0.9777839965820313	0.1482586975097656	0		-0.4938250732421875	-2.825785888671875	0		1.624711181640625	-0.8050997314453125	0		3.2110849609375	-0.7761355590820312	0		4.44541796875	-0.40304888916015624	0		5.92193701171875	0.3825185546875	0		-0.25045652770996096	5.91420068359375	0		
0.0017819889783859252	0.00881605339050293	0		0.5479389038085938	-2.55582373046875	0		-0.9508480224609375	0.14943289184570313	0		-0.49463092041015627	-2.805319580078125	0		1.6040941162109374	-0.761386474609375	0		3.1753671875	-0.7422357788085937	0		4.449455078125	-0.3925321044921875	0		5.9169501953125	0.3921661376953125	0		-0.25164533996582034	5.9156728515625	0		
0.004570787906646729	-0.006789392948150634	0		0.5140905151367188	-2.542043701171875	0		-0.95898193359375	0.14191201782226562	0		-0.4984439697265625	-2.78886962890625	0		1.5804583740234375	-0.7216798706054688	0		3.121390380859375	-0.7361832885742188	0		4.4196044921875	-0.37269683837890627	0		5.9168896484375	0.39274957275390626	0		-0.2868931579589844	5.9124423828125	0		
-0.008396780014038086	-2.8219300508499143E-4	0		0.5352511596679688	-2.53086181640625	0		-0.9590150146484375	0.14225880432128907	0		-0.5481014404296874	-2.76000830078125	0		1.572753662109375	-0.6911744384765625	0		3.118595703125	-0.7146790161132812	0		4.41560302734375	-0.3701517333984375	0		5.92176806640625	0.3852630615234375	0		-0.2681589660644531	5.9076201171875	0		
0.0015069090127944947	-0.009054546356201171	0		0.5233453369140625	-2.5293955078125	0		-0.9960140991210937	0.14392205810546874	0		-0.5029220886230469	-2.751150390625	0		1.532473876953125	-0.6203851928710937	0		3.12173486328125	-0.7022719116210937	0		4.392755859375	-0.35445150756835936	0		5.91682861328125	0.393849365234375	0		-0.2522845153808594	5.91677783203125	0		
0.008595200538635253	-0.0018483790159225463	0		0.49086114501953126	-2.488772705078125	0		-0.9819818115234376	0.1460203857421875	0		-0.5246272583007813	-2.73367529296875	0		1.506716796875	-0.5997921752929688	0		3.07117138671875	-0.6623698120117187	0		4.4198505859375	-0.34728887939453124	0		5.93483154296875	0.39417410278320314	0		-0.28654180908203125	5.9123828125	0		
-0.005299858093261719	0.004514615058898926	0		0.4950568237304688	-2.483568359375	0		-0.9549345092773438	0.14693670654296875	0		-0.5062735595703125	-2.713652099609375	0		1.525003173828125	-0.5776860961914062	0		3.063183837890625	-0.6679407348632812	0		4.37209423828125	-0.32742364501953125	0		5.93893896484375	0.4026004333496094	0		-0.2337410430908203	5.91206982421875	0		
0.0016431920528411864	-0.008382079124450683	0		0.4972529907226563	-2.4813955078125	0		-0.9589080810546875	0.14310816955566405	0		-0.5349970703125	-2.704215576171875	0		1.5173861083984375	-0.5483722534179688	0		3.077480712890625	-0.6477788696289063	0		4.35910546875	-0.33395355224609374	0		5.93000439453125	0.40411138916015626	0		-0.2679658508300781	5.90756787109375	0		
0.0017436439990997313	-0.008261776924133301	0		0.49947735595703124	-2.47927392578125	0		-0.9228157348632813	0.14283404541015626	0		-0.516596923828125	-2.685295654296875	0		1.4766588134765626	-0.5327857055664063	0		3.021846923828125	-0.6229794311523438	0		4.3593017578125	-0.32466455078125	0		5.94315576171875	0.41135372924804686	0		-0.2983101806640625	5.88797265625	0		
0.0018731110095977783	-0.008191700935363769	0		0.4778069152832031	-2.468968505859375	0		-0.985689453125	0.14348300170898437	0		-0.5412294311523438	-2.672002685546875	0		1.4808486328125	-0.528694580078125	0		3.02511865234375	-0.610815673828125	0		4.33052734375	-0.31514703369140623	0		5.93918994140625	0.40370654296875	0		-0.3173819885253906	5.89221630859375	0		
0.012128978729248048	0.0017334259748458863	0		0.5131170654296875	-2.463268798828125	0		-0.9445090942382812	0.14606828308105468	0		-0.5298518676757813	-2.6601083984375	0		1.4810274658203124	-0.52861474609375	0		3.03136865234375	-0.6037353515625	0		4.31076123046875	-0.3077764892578125	0		5.94748828125	0.4198787841796875	0		-0.28241229248046873	5.8958857421875	0		
0.00928696632385254	-0.001256201982498169	0		0.46960546875	-2.44084375	0		-0.9872765502929688	0.15143370056152344	0		-0.5334071044921875	-2.643108154296875	0		1.4722528076171875	-0.5264953002929688	0		3.007849853515625	-0.5754176025390625	0		4.3231865234375	-0.2837760314941406	0		5.951748046875	0.42902667236328124	0		-0.2975167236328125	5.88700244140625	0		
